<svg xmlns="http://www.w3.org/2000/svg" xmlns:xlink="http://www.w3.org/1999/xlink" width="180.433" height="114.604" viewBox="0 0 180.433 114.604">
  <defs>
    <clipPath id="clip-path">
      <path id="Path_100" data-name="Path 100" d="M1933.971,747.3c2.558-14.512-31.1-32.574-75.164-40.349-44.045-7.764-81.835-2.3-84.393,12.213-2.558,14.491,31.088,32.54,75.132,40.311C1893.615,767.246,1931.412,761.791,1933.971,747.3Z" transform="translate(-1774.277 -703.419)" fill="none"/>
    </clipPath>
  </defs>
  <g id="plate" transform="translate(-1743.65 -691.575)">
    <g id="Group_259" data-name="Group 259" transform="translate(1744.674 692.672)">
      <g id="Group_254" data-name="Group 254" transform="translate(0)">
        <path id="Path_95" data-name="Path 95" d="M1932.34,742.621c3.066-17.4-32.623-38.233-79.716-46.54-47.066-8.3-87.726-.923-90.793,16.472-3.062,17.374,32.62,38.2,79.685,46.5C1888.613,767.359,1929.274,760,1932.34,742.621Z" transform="translate(-1754.137 -692.672)" fill="#fff" stroke="#7a031f" stroke-width="2"/>
        <path id="Path_96" data-name="Path 96" d="M1744.856,780.22c-3.056,17.347,32.62,38.2,79.682,46.5,47.1,8.3,87.764.913,90.824-16.437l7.515-42.613c-3.066,17.375-43.726,24.737-90.823,16.431-47.066-8.3-82.748-29.125-79.685-46.5Z" transform="translate(-1744.674 -717.722)" fill="#fff" stroke="#7a031f" stroke-width="2"/>
        <line id="Line_31" data-name="Line 31" y1="42.613" x2="7.515" transform="translate(170.688 49.95)" fill="#ffd99f" stroke="#7a031f" stroke-width="2"/>
      </g>
      <g id="Group_255" data-name="Group 255" transform="translate(13.099 4.756)" clip-path="url(#clip-path)">
        <path id="Path_99" data-name="Path 99" d="M1930.862,763.192c2.558-14.512-30.791-34.285-74.859-42.053-44.044-7.768-82.14-.591-84.7,13.917-2.555,14.488,31.091,32.547,75.135,40.311C1890.506,783.139,1928.311,777.68,1930.862,763.192Z" transform="translate(-1772.545 -711.527)" fill="none" stroke="#7a031f" stroke-width="2"/>
      </g>
    </g>
    <path id="Path_97" data-name="Path 97" d="M1834.728,812.306s1.745,15.9,20.209,22.086l2.14,2.665-2.672,15.152-3.429.985s-15.567-4.446-23.21,2.817" transform="translate(-46.325 -66.698)" fill="none" stroke="#7a031f" stroke-linecap="round" stroke-linejoin="round" stroke-width="2"/>
    <path id="Path_98" data-name="Path 98" d="M1933.971,747.3c2.558-14.512-31.1-32.574-75.164-40.349-44.045-7.764-81.835-2.3-84.393,12.213-2.558,14.491,31.088,32.54,75.132,40.311C1893.615,767.246,1931.412,761.791,1933.971,747.3Z" transform="translate(-16.504 -5.992)" fill="none" stroke="#7a031f" stroke-width="2.5"/>
    <path id="Path_101" data-name="Path 101" d="M1933.971,747.3c2.558-14.512-31.1-32.574-75.164-40.349-44.045-7.764-81.835-2.3-84.393,12.213-2.558,14.491,31.088,32.54,75.132,40.311C1893.615,767.246,1931.412,761.791,1933.971,747.3Z" transform="translate(-16.504 -5.992)" fill="none" stroke="#7a031f" stroke-width="2"/>
    <path id="Path_102" data-name="Path 102" d="M1852.624,696.081c-47.066-8.3-87.726-.923-90.793,16.472-3.062,17.374,32.62,38.2,79.685,46.5,47.1,8.307,87.757.944,90.823-16.431C1935.406,725.223,1899.717,704.388,1852.624,696.081Zm-10.118,57.4c-44.044-7.771-77.69-25.82-75.132-40.311,2.558-14.512,40.349-19.977,84.393-12.213,44.069,7.774,77.722,25.837,75.164,40.349C1924.371,755.8,1886.574,761.254,1842.505,753.483Z" transform="translate(-9.464 0)" fill="#fff" stroke="#7a031f" stroke-width="2"/>
    <path id="Path_107" data-name="Path 107" d="M1857.159,719.521c26.932-.308,48.99,22.664,49.318,51.361" transform="translate(-62.712 -14.967)" fill="none" stroke="#7a031f" stroke-width="2"/>
    <path id="Path_108" data-name="Path 108" d="M1804.992,728.715c26.6-.3,48.35,18.567,48.62,42.191" transform="translate(-33.628 -20.093)" fill="none" stroke="#7a031f" stroke-width="2"/>
    <path id="Path_109" data-name="Path 109" d="M1779.656,742.651c19.749-.208,35.889,12.548,36.088,28.519" transform="translate(-19.503 -27.863)" fill="none" stroke="#7a031f" stroke-width="2"/>
    <path id="Path_110" data-name="Path 110" d="M1912.388,718.553c26.932-.3,47.649,22.9,47.977,51.361" transform="translate(-93.503 -14)" fill="none" stroke="#7a031f" stroke-linecap="round" stroke-width="2"/>
    <path id="Path_111" data-name="Path 111" d="M2003.278,733.975c5.594,1.931,29.224,20.2,29.52,46.074" transform="translate(-144.176 -23.027)" fill="none" stroke="#7a031f" stroke-width="2"/>
    <path id="Path_112" data-name="Path 112" d="M2052.2,750.254s25.554,11.194,25.813,33.832" transform="translate(-171.45 -32.103)" fill="none" stroke="#7a031f" stroke-width="2"/>
    <path id="Path_113" data-name="Path 113" d="M1914.871,766.628l2.938-5.517s6.216-3.395,15.6-.9,12.687,7.75,12.687,7.75l.716,5.417" transform="translate(-94.888 -37.144)" fill="none" stroke="#7a031f" stroke-linecap="round" stroke-linejoin="round" stroke-width="12"/>
    <path id="Path_114" data-name="Path 114" d="M1914.871,766.628l2.938-5.517s6.216-3.395,15.6-.9,12.687,7.75,12.687,7.75l.716,5.417" transform="translate(-94.888 -37.144)" fill="none" stroke="#fffdfa" stroke-linecap="round" stroke-linejoin="round" stroke-width="7.5"/>
    <path id="Path_103" data-name="Path 103" d="M1872.6,856.708l-7.951-2.217,1.468-8.324,7.951,2.217Z" transform="translate(-66.887 -85.576)" fill="#fff" stroke="#7a031f" stroke-linecap="round" stroke-linejoin="round" stroke-width="2"/>
    <path id="Path_104" data-name="Path 104" d="M1806.168,820.376l-.767.757-.408,2.3.408,1.293,2.89,1.569-.4-1.307.4-2.3.764-.747Z" transform="translate(-33.629 -71.198)" fill="#fff" stroke="#7a031f" stroke-linecap="round" stroke-linejoin="round" stroke-width="2"/>
    <path id="Path_105" data-name="Path 105" d="M1798.692,862.775l-.764.757-.4,2.306.4,1.293,2.9,1.566-.408-1.3.408-2.306.764-.743Z" transform="translate(-29.465 -94.835)" fill="#fff" stroke="#7a031f" stroke-linecap="round" stroke-linejoin="round" stroke-width="2"/>
    <path id="Path_106" data-name="Path 106" d="M1865.717,891.695l-7.944-2.217,2.033-11.493,7.936,2.216Z" transform="translate(-63.055 -103.315)" fill="#fff" stroke="#7a031f" stroke-linecap="round" stroke-linejoin="round" stroke-width="2"/>
  </g>
</svg>
