<svg xmlns="http://www.w3.org/2000/svg" width="159.544" height="57.699" viewBox="0 0 159.544 57.699">
  <g id="logo" transform="translate(0)">
    <g id="logo-2" data-name="logo" transform="translate(-500.088 -314.204)">
      <g id="logo-3" data-name="logo" transform="translate(492 321)">
        <g id="focused-indicator" transform="translate(656.591 -231.15) rotate(112)">
          <path id="Path_25" data-name="Path 25" d="M1405.07-223.342a18.817,18.817,0,0,1,5.087,20.079c-4.313,9.86-12.16,13.509-18.485,16.319s-12.766,4-20.108-3.9-4.2-18.189-.177-25.222,10.384-10.767,15.32-12.947S1398.079-229.262,1405.07-223.342Z" transform="translate(-934.105 657.711)" fill="#7a031f"/>
        </g>
        <path id="Path_248" data-name="Path 248" d="M-9.144,1.4C-5.4.936-3.528-1.4-3.528-6.264a1.861,1.861,0,0,0-1.98-1.764,1.725,1.725,0,0,0-1.8,1.836c0,1.836-.36,3.96-2.448,4.248a65.761,65.761,0,0,1-8.6.468c-8.388,0-8.388-.18-8.388-3.348,0-4.5,0-4.5,2.448-4.5h4.536c4.428,0,4.464-1.764,4.464-5.148,0-3.276-.252-4.9-3.42-4.932-.972,0-5.256-.036-7.6-.036h-1.3c.684-.864,1.3-1.8,1.908-2.736,3.276-.072,12.024-.108,14-.108,1.332,0,1.332.5,1.332,3.384,0,6.624-.468,9.9-2.916,9.9a4.563,4.563,0,0,1-1.3-.252,2.446,2.446,0,0,0-.684-.108,1.628,1.628,0,0,0-1.62,1.692c0,1.512,1.476,2.088,3.78,2.088,6.12,0,6.192-6.948,6.192-13.644,0-.972,0-1.872-.036-2.592-.108-2.412-1.836-3.636-4.1-3.636-2.2,0-8.748.036-12.78.108a5.638,5.638,0,0,0,.9-2.052,1.906,1.906,0,0,0-1.98-1.692,1.588,1.588,0,0,0-1.512,1.008A29.8,29.8,0,0,1-33.7-17.964a1.553,1.553,0,0,0-.576,1.152A1.829,1.829,0,0,0-32.4-15.12c.9,0,1.26-.4,3.24-2.484a1.381,1.381,0,0,0,1.4,1.188h.072c.864-.036,4.824-.072,6.876-.072,1.872,0,2.016.036,2.052.9.036.468.072.9.072,1.368,0,1.548-.216,1.944-1.116,1.944h-6.66c-3.636.108-3.708,2.412-3.708,5.724,0,1.188,0,2.484.036,3.528.108,4.824,4.356,4.9,11.376,4.9C-15.408,1.872-11.844,1.692-9.144,1.4ZM33.12-12.06a1.561,1.561,0,0,0,1.512-1.692,1.5,1.5,0,0,0-1.476-1.656H33.12l-9.9.108a12.253,12.253,0,0,0-1.152-2.592,49.334,49.334,0,0,0,6.012-5.076,3.071,3.071,0,0,0,.864-2.088c0-1.3-1.008-2.484-3.2-2.52-2.016-.036-4.68-.072-7.38-.072s-5.472.036-7.7.108a1.6,1.6,0,0,0-1.692,1.62,1.569,1.569,0,0,0,1.656,1.584h.072c3.1-.108,6.768-.18,9.9-.18,1.116,0,2.2,0,3.132.036.432,0,.612.072.612.216,0,.468-3.6,3.348-4.392,3.924a8.9,8.9,0,0,0-1.512-.972,2.508,2.508,0,0,0-.972-.216,1.809,1.809,0,0,0-1.908,1.548,1.2,1.2,0,0,0,.72,1.044,7.494,7.494,0,0,1,3.1,3.672l-14.292.072A1.593,1.593,0,0,0,3.42-13.5a1.575,1.575,0,0,0,1.62,1.656h.036l15.156-.144a14.818,14.818,0,0,1,.108,1.836,17.669,17.669,0,0,1-.684,4.788A4.921,4.921,0,0,1,14.724-1.4a7.83,7.83,0,0,1-2.3-.36,2.446,2.446,0,0,0-.684-.108A1.7,1.7,0,0,0,10.044-.108c0,1.188,1.008,2.34,4.608,2.34a8.6,8.6,0,0,0,8.568-6.66,25.192,25.192,0,0,0,.72-5.8,14.46,14.46,0,0,0-.072-1.8Z" transform="translate(133 36)" fill="#7a031f"/>
        <path id="Path_247" data-name="Path 247" d="M14.04-7.812A2.106,2.106,0,0,0,16.092-9.9c0-2.016-4.608-7.164-7.236-9.288a2.207,2.207,0,0,0-1.368-.54A1.711,1.711,0,0,0,5.724-18.18a1.671,1.671,0,0,0,.612,1.224,30.145,30.145,0,0,1,5.9,7.884A1.973,1.973,0,0,0,14.04-7.812ZM2.232-7.668v-18.72A1.782,1.782,0,0,0,.36-28.224a1.821,1.821,0,0,0-1.944,1.836V-4.176c0,1.836-1.3,2.412-2.916,2.412a12.062,12.062,0,0,1-2.484-.324,2.053,2.053,0,0,0-.468-.036A1.781,1.781,0,0,0-9.216-.288c0,1.764,1.908,2.3,4.824,2.3,5,0,6.7-3.1,6.7-5.364V-3.42ZM-12.276-7.2C-9.5-10.008-5.94-16.236-5.94-17.82a1.883,1.883,0,0,0-1.944-1.8A1.741,1.741,0,0,0-9.54-18.468a27.94,27.94,0,0,1-5.652,8.712,2.051,2.051,0,0,0-.72,1.476,1.925,1.925,0,0,0,1.98,1.836A2.323,2.323,0,0,0-12.276-7.2Z" transform="translate(24 37)" fill="#7a031f"/>
        <path id="Path_246" data-name="Path 246" d="M10.53-20.16a1.29,1.29,0,0,0,1.38-1.32,1.338,1.338,0,0,0-1.38-1.38H-10.44a1.331,1.331,0,0,0-1.44,1.35,1.348,1.348,0,0,0,1.44,1.35ZM8.76-10.89c.03-.69.06-1.41.06-2.07,0-.69-.03-1.38-.06-1.98a3.1,3.1,0,0,0-3.21-2.58c-1.92-.03-4.2-.06-6.3-.06-1.74,0-3.36.03-4.62.06-2.4.06-3.3,1.47-3.36,2.82-.03.66-.03,1.35-.03,2.07,0,.57,0,1.14.03,1.77.09,1.65,1.23,2.82,3.42,2.91,1.68.06,3.48.09,5.28.09,1.83,0,3.69-.03,5.43-.09A3.213,3.213,0,0,0,8.76-10.89ZM11.67.45A1.236,1.236,0,0,0,12.9-.87a1.236,1.236,0,0,0-1.23-1.32l-7.29.03A8.852,8.852,0,0,0,6.21-5.34a1.736,1.736,0,0,0-1.77-1.5,1.315,1.315,0,0,0-1.29.93A14.774,14.774,0,0,1,1.29-2.13L.21-2.1l-2.19-.03A1.369,1.369,0,0,0-1.59-3c0-.66-1.86-3.72-3.21-3.72-.78,0-1.62.57-1.62,1.23a.86.86,0,0,0,.24.6A9.495,9.495,0,0,1-4.26-2.16l-7.23-.03A1.282,1.282,0,0,0-12.84-.87,1.282,1.282,0,0,0-11.49.45Zm-7.2-10.8c-1.38.03-2.97.06-4.56.06-1.56,0-3.09-.03-4.38-.06-1.41-.06-1.41-.6-1.41-2.58,0-1.32.09-2.13,1.38-2.16,1.41-.03,3.21-.06,4.95-.06,1.44,0,2.85.03,3.96.06,1.35.03,1.41.51,1.41,2.55C5.82-11.16,5.73-10.41,4.47-10.35Z" transform="translate(69 34)" fill="#fff"/>
      </g>
    </g>
    <g id="Path_70" data-name="Path 70" transform="translate(54.741 6.856) rotate(66)" fill="none">
      <path d="M1.039.3l3.7-.3a1.292,1.292,0,0,1,1.33,1.2,1.38,1.38,0,0,1-1.33,1.41l-3.707-.32A.938.938,0,0,1,0,1.33,1,1,0,0,1,1.039.3Z" stroke="none"/>
      <path d="M 4.766511917114258 1.000775814056396 L 1.12031364440918 1.297285556793213 L 1.118355274200439 1.297444820404053 L 4.73248291015625 1.609725832939148 C 4.805594921112061 1.587381362915039 5.088353633880615 1.487093687057495 5.070313453674316 1.299555540084839 C 5.062699317932129 1.220485925674438 5.042912483215332 1.015025496482849 4.766511917114258 1.000775814056396 M 4.735513687133789 -4.529953002929688e-06 C 5.20107364654541 -4.529953002929688e-06 5.975463390350342 0.2658255100250244 6.065713405609131 1.203775525093079 C 6.15596342086792 2.141735553741455 5.20107364654541 2.613715648651123 4.735513687133789 2.613715648651123 L 1.028233528137207 2.29338550567627 C 0.5626735687255859 2.29338550567627 3.814697265625e-06 2.051615476608276 3.814697265625e-06 1.329865574836731 C 3.814697265625e-06 0.6081056594848633 0.5736937522888184 0.3005754947662354 1.039263725280762 0.3005754947662354 L 4.735513687133789 -4.529953002929688e-06 Z" stroke="none" fill="#fff"/>
    </g>
  </g>
</svg>
